<svg version="1.1" viewBox="0.0 0.0 820.6902887139107 270.6902887139108" fill="none" stroke="none" stroke-linecap="square" stroke-miterlimit="10" xmlns:xlink="http://www.w3.org/1999/xlink" xmlns="http://www.w3.org/2000/svg"><clipPath id="p.0"><path d="m0 0l820.6903 0l0 270.69028l-820.6903 0l0 -270.69028z" clip-rule="nonzero"/></clipPath><g clip-path="url(#p.0)"><path fill="#000000" fill-opacity="0.0" d="m0 0l820.6903 0l0 270.69028l-820.6903 0z" fill-rule="evenodd"/><path fill="#3c78d8" d="m29.64567 230.39845l44.104767 -174.5512l50.00547 0l-44.10476 174.5512z" fill-rule="evenodd"/><path fill="#3c78d8" d="m62.643993 195.09213l84.944885 0l0 35.3071l-84.944885 0z" fill-rule="evenodd"/><path fill="#3c78d8" d="m117.25984 230.41733l44.104767 -182.14174l50.005463 0l-44.10475 182.14174z" fill-rule="evenodd"/><path fill="#000000" fill-opacity="0.0" d="m244.69817 56.299213l618.3622 0l0 174.51968l-618.3622 0z" fill-rule="evenodd"/><path fill="#9fc5e8" d="m307.88565 165.49171q0 5.6875 -2.09375 10.125q-2.09375 4.4375 -5.8125 7.53125q-3.71875 3.09375 -8.75 4.65625q-5.03125 1.5625 -10.84375 1.5625q-4.0625 0 -7.53125 -0.6875q-3.46875 -0.6875 -6.1875 -1.6875q-2.71875 -1.0 -4.5625 -2.0625q-1.84375 -1.0625 -2.5625 -1.8125q-0.71875 -0.75 -1.0625 -1.90625q-0.34375 -1.15625 -0.34375 -3.09375q0 -1.375 0.125 -2.28125q0.125 -0.90625 0.375 -1.46875q0.25 -0.5625 0.625 -0.78125q0.375 -0.21875 0.875 -0.21875q0.875 0 2.46875 1.0625q1.59375 1.0625 4.09375 2.3125q2.5 1.25 6.03125 2.34375q3.53125 1.09375 8.15625 1.09375q3.5 0 6.40625 -0.9375q2.90625 -0.9375 5.0 -2.65625q2.09375 -1.71875 3.21875 -4.21875q1.125 -2.5 1.125 -5.6875q0 -3.4375 -1.5625 -5.875q-1.5625 -2.4375 -4.125 -4.28125q-2.5625 -1.84375 -5.84375 -3.375q-3.28125 -1.53125 -6.71875 -3.125q-3.4375 -1.59375 -6.6875 -3.53125q-3.25 -1.9375 -5.8125 -4.5625q-2.5625 -2.625 -4.15625 -6.15625q-1.59375 -3.53125 -1.59375 -8.46875q0 -5.0625 1.84375 -9.03125q1.84375 -3.96875 5.125 -6.65625q3.28125 -2.6875 7.8125 -4.09375q4.53125 -1.40625 9.78125 -1.40625q2.6875 0 5.40625 0.46875q2.71875 0.46875 5.125 1.25q2.40625 0.78125 4.28125 1.75q1.875 0.96875 2.46875 1.5625q0.59375 0.59375 0.78125 0.9375q0.1875 0.34375 0.3125 0.875q0.125 0.53125 0.1875 1.28125q0.0625 0.75 0.0625 1.9375q0 1.125 -0.09375 2.0q-0.09375 0.875 -0.28125 1.46875q-0.1875 0.59375 -0.53125 0.875q-0.34375 0.28125 -0.78125 0.28125q-0.6875 0 -2.15625 -0.875q-1.46875 -0.875 -3.59375 -1.96875q-2.125 -1.09375 -5.03125 -2.0q-2.90625 -0.90625 -6.53125 -0.90625q-3.375 0 -5.875 0.90625q-2.5 0.90625 -4.125 2.40625q-1.625 1.5 -2.4375 3.5625q-0.8125 2.0625 -0.8125 4.375q0 3.375 1.5625 5.8125q1.5625 2.4375 4.15625 4.3125q2.59375 1.875 5.90625 3.4375q3.3125 1.5625 6.75 3.15625q3.4375 1.59375 6.75 3.5q3.3125 1.90625 5.90625 4.5q2.59375 2.59375 4.1875 6.125q1.59375 3.53125 1.59375 8.34375zm66.5 -7.625q0 6.875 -1.8125 12.65625q-1.8125 5.78125 -5.40625 9.96875q-3.59375 4.1875 -9.0 6.53125q-5.40625 2.34375 -12.53125 2.34375q-6.9375 0 -12.09375 -2.0625q-5.15625 -2.0625 -8.59375 -6.0q-3.4375 -3.9375 -5.125 -9.5625q-1.6875 -5.625 -1.6875 -12.75q0 -6.875 1.78125 -12.65625q1.78125 -5.78125 5.375 -9.96875q3.59375 -4.1875 8.96875 -6.5q5.375 -2.3125 12.5625 -2.3125q6.9375 0 12.09375 2.0625q5.15625 2.0625 8.59375 6.0q3.4375 3.9375 5.15625 9.5625q1.71875 5.625 1.71875 12.6875zm-10.875 0.6875q0 -4.5625 -0.84375 -8.625q-0.84375 -4.0625 -2.78125 -7.125q-1.9375 -3.0625 -5.25 -4.84375q-3.3125 -1.78125 -8.25 -1.78125q-4.5625 0 -7.84375 1.625q-3.28125 1.625 -5.40625 4.59375q-2.125 2.96875 -3.15625 7.03125q-1.03125 4.0625 -1.03125 8.875q0 4.625 0.84375 8.6875q0.84375 4.0625 2.8125 7.09375q1.96875 3.03125 5.28125 4.8125q3.3125 1.78125 8.25 1.78125q4.5 0 7.8125 -1.625q3.3125 -1.625 5.4375 -4.5625q2.125 -2.9375 3.125 -7.0q1.0 -4.0625 1.0 -8.9375zm56.875 -51.3125q0 1.1875 -0.125 1.90625q-0.125 0.71875 -0.28125 1.15625q-0.15625 0.4375 -0.40625 0.59375q-0.25 0.15625 -0.625 0.15625q-0.4375 0 -1.09375 -0.28125q-0.65625 -0.28125 -1.59375 -0.625q-0.9375 -0.34375 -2.21875 -0.625q-1.28125 -0.28125 -2.96875 -0.28125q-2.3125 0 -3.9375 0.75q-1.625 0.75 -2.625 2.34375q-1.0 1.59375 -1.4375 4.125q-0.4375 2.53125 -0.4375 6.15625l0 6.125l12.5625 0q0.5 0 0.84375 0.21875q0.34375 0.21875 0.625 0.75q0.28125 0.53125 0.4375 1.34375q0.15625 0.8125 0.15625 2.0q0 2.25 -0.5625 3.25q-0.5625 1.0 -1.5 1.0l-12.5625 0l0 49.3125q0 0.5 -0.25 0.84375q-0.25 0.34375 -0.84375 0.59375q-0.59375 0.25 -1.59375 0.375q-1.0 0.125 -2.5 0.125q-1.5 0 -2.5 -0.125q-1.0 -0.125 -1.59375 -0.375q-0.59375 -0.25 -0.84375 -0.59375q-0.25 -0.34375 -0.25 -0.84375l0 -49.3125l-7.9375 0q-1.0 0 -1.5 -1.0q-0.5 -1.0 -0.5 -3.25q0 -1.1875 0.125 -2.0q0.125 -0.8125 0.375 -1.34375q0.25 -0.53125 0.625 -0.75q0.375 -0.21875 0.875 -0.21875l7.9375 0l0 -5.8125q0 -5.875 1.09375 -10.09375q1.09375 -4.21875 3.34375 -6.90625q2.25 -2.6875 5.65625 -3.96875q3.40625 -1.28125 8.03125 -1.28125q2.1875 0 4.25 0.40625q2.0625 0.40625 3.1875 0.875q1.125 0.46875 1.5 0.84375q0.375 0.375 0.625 0.96875q0.25 0.59375 0.34375 1.4375q0.09375 0.84375 0.09375 2.03125zm37.5 75.25q0 1.8125 -0.25 2.875q-0.25 1.0625 -0.75 1.5625q-0.5 0.5 -1.5 0.9375q-1.0 0.4375 -2.28125 0.71875q-1.28125 0.28125 -2.71875 0.46875q-1.4375 0.1875 -2.875 0.1875q-4.375 0 -7.5 -1.15625q-3.125 -1.15625 -5.125 -3.5q-2.0 -2.34375 -2.90625 -5.9375q-0.90625 -3.59375 -0.90625 -8.46875l0 -32.875l-7.875 0q-0.9375 0 -1.5 -1.0q-0.5625 -1.0 -0.5625 -3.25q0 -1.1875 0.15625 -2.0q0.15625 -0.8125 0.40625 -1.34375q0.25 -0.53125 0.65625 -0.75q0.40625 -0.21875 0.90625 -0.21875l7.8125 0l0 -13.375q0 -0.4375 0.21875 -0.8125q0.21875 -0.375 0.8125 -0.65625q0.59375 -0.28125 1.59375 -0.40625q1.0 -0.125 2.5 -0.125q1.5625 0 2.5625 0.125q1.0 0.125 1.5625 0.40625q0.5625 0.28125 0.8125 0.65625q0.25 0.375 0.25 0.8125l0 13.375l14.4375 0q0.5 0 0.875 0.21875q0.375 0.21875 0.65625 0.75q0.28125 0.53125 0.40625 1.34375q0.125 0.8125 0.125 2.0q0 2.25 -0.5625 3.25q-0.5625 1.0 -1.5 1.0l-14.4375 0l0 31.375q0 5.8125 1.71875 8.78125q1.71875 2.96875 6.15625 2.96875q1.4375 0 2.5625 -0.28125q1.125 -0.28125 2.0 -0.59375q0.875 -0.3125 1.5 -0.59375q0.625 -0.28125 1.125 -0.28125q0.3125 0 0.59375 0.15625q0.28125 0.15625 0.4375 0.59375q0.15625 0.4375 0.28125 1.1875q0.125 0.75 0.125 1.875zm92.31253 -52.25q0 0.4375 -0.125 1.0625q-0.125 0.625 -0.4375 1.5625l-16.5625 53.4375q-0.1875 0.6875 -0.59375 1.125q-0.40625 0.4375 -1.125 0.6875q-0.71875 0.25 -1.96875 0.34375q-1.25 0.09375 -3.125 0.09375q-1.9375 0 -3.25 -0.125q-1.3125 -0.125 -2.09375 -0.375q-0.78125 -0.25 -1.15625 -0.6875q-0.375 -0.4375 -0.5625 -1.0625l-11.8125305 -40.8125l-0.125 -0.5625l-0.125 0.5625l-10.9375 40.8125q-0.1875 0.6875 -0.59375 1.125q-0.40625 0.4375 -1.21875 0.6875q-0.8125 0.25 -2.09375 0.34375q-1.28125 0.09375 -3.15625 0.09375q-1.9375 0 -3.15625 -0.125q-1.21875 -0.125 -2.0 -0.375q-0.78125 -0.25 -1.15625 -0.6875q-0.375 -0.4375 -0.5625 -1.0625l-16.4375 -53.4375q-0.3125 -0.9375 -0.4375 -1.5625q-0.125 -0.625 -0.125 -1.0625q0 -0.5625 0.25 -0.90625q0.25 -0.34375 0.84375 -0.5625q0.59375 -0.21875 1.59375 -0.28125q1.0 -0.0625 2.4375 -0.0625q1.75 0 2.8125 0.09375q1.0625 0.09375 1.625 0.3125q0.5625 0.21875 0.8125 0.625q0.25 0.40625 0.4375 0.96875l13.5625 46.375l0.125 0.5625l0.125 -0.5625l12.4375 -46.375q0.125 -0.5625 0.40625 -0.96875q0.28125 -0.40625 0.84375 -0.625q0.5625 -0.21875 1.53125 -0.3125q0.96875 -0.09375 2.53125 -0.09375q1.5 0 2.46875 0.09375q0.96875 0.09375 1.53125 0.3125q0.5625305 0.21875 0.8125305 0.59375q0.25 0.375 0.375 0.875l13.4375 46.5l0.125 0.5625l0.0625 -0.5625l13.375 -46.375q0.125 -0.5625 0.40625 -0.96875q0.28125 -0.40625 0.875 -0.625q0.59375 -0.21875 1.625 -0.3125q1.03125 -0.09375 2.65625 -0.09375q1.5 0 2.40625 0.0625q0.90625 0.0625 1.4375 0.3125q0.53125 0.25 0.75 0.5625q0.21875 0.3125 0.21875 0.875zm53.75 56.4375q0 0.75 -0.5 1.125q-0.5 0.375 -1.375 0.5625q-0.875 0.1875 -2.5625 0.1875q-1.625 0 -2.59375 -0.1875q-0.96875 -0.1875 -1.40625 -0.5625q-0.4375 -0.375 -0.4375 -1.125l0 -5.625q-3.6875 3.9375 -8.21875 6.125q-4.53125 2.1875 -9.59375 2.1875q-4.4375 0 -8.03125 -1.15625q-3.59375 -1.15625 -6.125 -3.34375q-2.53125 -2.1875 -3.9375 -5.375q-1.40625 -3.1875 -1.40625 -7.25q0 -4.75 1.9375 -8.25q1.9375 -3.5 5.5625 -5.8125q3.625 -2.3125 8.875 -3.46875q5.25 -1.15625 11.8125 -1.15625l7.75 0l0 -4.375q0 -3.25 -0.6875 -5.75q-0.6875 -2.5 -2.21875 -4.15625q-1.53125 -1.65625 -3.96875 -2.5q-2.4375 -0.84375 -6.0 -0.84375q-3.8125 0 -6.84375 0.90625q-3.03125 0.90625 -5.3125 2.0q-2.28125 1.09375 -3.8125 2.0q-1.53125 0.90625 -2.28125 0.90625q-0.5 0 -0.875 -0.25q-0.375 -0.25 -0.65625 -0.75q-0.28125 -0.5 -0.40625 -1.28125q-0.125 -0.78125 -0.125 -1.71875q0 -1.5625 0.21875 -2.46875q0.21875 -0.90625 1.0625 -1.71875q0.84375 -0.8125 2.90625 -1.90625q2.0625 -1.09375 4.75 -2.0q2.6875 -0.90625 5.875 -1.5q3.1875 -0.59375 6.4375 -0.59375q6.0625 0 10.3125 1.375q4.25 1.375 6.875 4.03125q2.625 2.65625 3.8125 6.59375q1.1875 3.9375 1.1875 9.1875l0 37.9375zm-10.25 -25.6875l-8.8125 0q-4.25 0 -7.375 0.71875q-3.125 0.71875 -5.1875 2.125q-2.0625 1.40625 -3.03125 3.375q-0.96875 1.96875 -0.96875 4.53125q0 4.375 2.78125 6.96875q2.78125 2.59375 7.78125 2.59375q4.0625 0 7.53125 -2.0625q3.46875 -2.0625 7.28125 -6.3125l0 -11.9375zm62.0625 -26.9375q0 1.375 -0.0625 2.3125q-0.0625 0.9375 -0.25 1.46875q-0.1875 0.53125 -0.46875 0.8125q-0.28125 0.28125 -0.78125 0.28125q-0.5 0 -1.21875 -0.28125q-0.71875 -0.28125 -1.625 -0.5625q-0.90625 -0.28125 -2.03125 -0.53125q-1.125 -0.25 -2.4375 -0.25q-1.5625 0 -3.0625 0.625q-1.5 0.625 -3.15625 2.0625q-1.65625 1.4375 -3.46875 3.8125q-1.8125 2.375 -4.0 5.8125l0 37.0q0 0.5 -0.25 0.84375q-0.25 0.34375 -0.8125 0.59375q-0.5625 0.25 -1.5625 0.375q-1.0 0.125 -2.5625 0.125q-1.5 0 -2.5 -0.125q-1.0 -0.125 -1.59375 -0.375q-0.59375 -0.25 -0.8125 -0.59375q-0.21875 -0.34375 -0.21875 -0.84375l0 -56.25q0 -0.5 0.1875 -0.84375q0.1875 -0.34375 0.75 -0.625q0.5625 -0.28125 1.4375 -0.375q0.875 -0.09375 2.3125 -0.09375q1.375 0 2.28125 0.09375q0.90625 0.09375 1.40625 0.375q0.5 0.28125 0.71875 0.625q0.21875 0.34375 0.21875 0.84375l0 8.1875q2.3125 -3.375 4.34375 -5.5q2.03125 -2.125 3.84375 -3.34375q1.8125 -1.21875 3.59375 -1.6875q1.78125 -0.46875 3.59375 -0.46875q0.8125 0 1.84375 0.09375q1.03125 0.09375 2.15625 0.34375q1.125 0.25 2.03125 0.5625q0.90625 0.3125 1.28125 0.625q0.375 0.3125 0.5 0.59375q0.125 0.28125 0.21875 0.71875q0.09375 0.4375 0.125 1.28125q0.03125 0.84375 0.03125 2.28125zm58.0625 22.0q0 2.4375 -1.21875 3.46875q-1.21875 1.03125 -2.78125 1.03125l-36.875 0q0 4.6875 0.9375 8.4375q0.9375 3.75 3.125 6.4375q2.1875 2.6875 5.6875 4.125q3.5 1.4375 8.5625 1.4375q4.0 0 7.125 -0.65625q3.125 -0.65625 5.40625 -1.46875q2.28125 -0.8125 3.75 -1.46875q1.46875 -0.65625 2.21875 -0.65625q0.4375 0 0.78125 0.21875q0.34375 0.21875 0.53125 0.65625q0.1875 0.4375 0.28125 1.21875q0.09375 0.78125 0.09375 1.90625q0 0.8125 -0.0625 1.40625q-0.0625 0.59375 -0.15625 1.0625q-0.09375 0.46875 -0.3125 0.84375q-0.21875 0.375 -0.5625 0.71875q-0.34375 0.34375 -2.03125 1.125q-1.6875 0.78125 -4.375 1.53125q-2.6875 0.75 -6.21875 1.34375q-3.53125 0.59375 -7.53125 0.59375q-6.9375 0 -12.15625 -1.9375q-5.21875 -1.9375 -8.78125 -5.75q-3.5625 -3.8125 -5.375 -9.5625q-1.8125 -5.75 -1.8125 -13.375q0 -7.25 1.875 -13.03125q1.875 -5.78125 5.40625 -9.8125q3.53125 -4.03125 8.53125 -6.1875q5.0 -2.15625 11.1875 -2.15625q6.625 0 11.28125 2.125q4.65625 2.125 7.65625 5.71875q3.0 3.59375 4.40625 8.4375q1.40625 4.84375 1.40625 10.34375l0 1.875zm-10.375 -3.0625q0.1875 -8.125 -3.59375 -12.75q-3.78125 -4.625 -11.21875 -4.625q-3.8125 0 -6.6875 1.4375q-2.875 1.4375 -4.8125 3.8125q-1.9375 2.375 -3.0 5.53125q-1.0625 3.15625 -1.1875 6.59375l30.5 0z" fill-rule="nonzero"/></g></svg>