<svg version="1.1" viewBox="0.0 0.0 576.7559055118111 145.4041994750656" fill="none" stroke="none" stroke-linecap="square" stroke-miterlimit="10" xmlns:xlink="http://www.w3.org/1999/xlink" xmlns="http://www.w3.org/2000/svg"><clipPath id="p.0"><path d="m0 0l576.7559 0l0 145.4042l-576.7559 0l0 -145.4042z" clip-rule="nonzero"/></clipPath><g clip-path="url(#p.0)"><path fill="#000000" fill-opacity="0.0" d="m0 0l576.7559 0l0 145.4042l-576.7559 0z" fill-rule="evenodd"/><path fill="#000000" fill-opacity="0.0" d="m164.86613 336.9029l458.77167 0l0 42.015747l-458.77167 0z" fill-rule="evenodd"/><path fill="#000000" fill-opacity="0.0" d="m145.41995 10.811024l576.75586 0l0 117.95276l-576.75586 0z" fill-rule="evenodd"/><path fill="#434343" d="m203.65433 79.54727q-1.0625 9.171875 -6.765625 14.15625q-5.703125 4.984375 -15.140625 4.984375q-10.25 0 -16.4375 -7.34375q-6.171875 -7.359375 -6.171875 -19.65625l0 -5.5625q0 -8.062496 2.875 -14.171871q2.890625 -6.125 8.171875 -9.390625q5.28125 -3.28125 12.234375 -3.28125q9.203125 0 14.765625 5.140625q5.5625 5.140625 6.46875 14.234375l-7.65625 0q-1.0 -6.90625 -4.3125 -10.0q-3.3125 -3.109375 -9.265625 -3.109375q-7.3125 0 -11.46875 5.40625q-4.140625 5.40625 -4.140625 15.374996l0 5.59375q0 9.40625 3.921875 14.96875q3.9375 5.5625 11.015625 5.5625q6.34375 0 9.734375 -2.875q3.40625 -2.890625 4.515625 -10.03125l7.65625 0zm16.606644 -19.421871q4.890625 -6.0 12.703125 -6.0q13.625 0 13.75 15.374996l0 28.390625l-7.359375 0l0 -28.4375q-0.03125 -4.640625 -2.125 -6.859371q-2.078125 -2.234375 -6.484375 -2.234375q-3.578125 0 -6.28125 1.90625q-2.6875 1.9062462 -4.203125 5.015621l0 30.609375l-7.34375 0l0 -60.999996l7.34375 0l0 23.234375zm45.434616 37.76562l-7.359375 0l0 -42.968746l7.359375 0l0 42.968746zm-7.953125 -54.35937q0 -1.796875 1.09375 -3.015625q1.09375 -1.234375 3.234375 -1.234375q2.15625 0 3.265625 1.234375q1.109375 1.21875 1.109375 3.015625q0 1.78125 -1.109375 2.984375q-1.109375 1.1875 -3.265625 1.1875q-2.140625 0 -3.234375 -1.1875q-1.09375 -1.203125 -1.09375 -2.984375zm56.002014 33.35937q0 9.796875 -4.5 15.796875q-4.484375 6.0 -12.140625 6.0q-7.828125 0 -12.3125 -4.96875l0 20.6875l-7.34375 0l0 -59.48437l6.703125 0l0.359375 4.765625q4.484375 -5.5625 12.46875 -5.5625q7.75 0 12.25 5.84375q4.515625 5.828121 4.515625 16.234371l0 0.6875zm-7.34375 -0.84375q0 -7.265625 -3.109375 -11.46875q-3.09375 -4.218746 -8.5 -4.218746q-6.671875 0 -10.0 5.921871l0 20.53125q3.296875 5.875 10.09375 5.875q5.28125 0 8.390625 -4.1875q3.125 -4.1875 3.125 -12.453125zm24.65918 21.84375l-7.359375 0l0 -42.968746l7.359375 0l0 42.968746zm-7.953125 -54.35937q0 -1.796875 1.09375 -3.015625q1.09375 -1.234375 3.234375 -1.234375q2.15625 0 3.265625 1.234375q1.109375 1.21875 1.109375 3.015625q0 1.78125 -1.109375 2.984375q-1.109375 1.1875 -3.265625 1.1875q-2.140625 0 -3.234375 -1.1875q-1.09375 -1.203125 -1.09375 -2.984375zm72.91675 39.26562l-24.21875 0l-5.453125 15.09375l-7.859375 0l22.078125 -57.812496l6.671875 0l22.125 57.812496l-7.828125 0l-5.515625 -15.09375zm-21.921875 -6.265625l19.65625 0l-9.84375 -27.046871l-9.8125 27.046871zm67.992065 17.109375q-4.296875 5.046875 -12.59375 5.046875q-6.875 0 -10.46875 -3.984375q-3.59375 -4.0 -3.625 -11.828125l0 -27.953121l7.34375 0l0 27.765621q0 9.765625 7.9375 9.765625q8.421875 0 11.203125 -6.28125l0 -31.249996l7.34375 0l0 42.968746l-6.984375 0l-0.15625 -4.25zm16.505585 -17.59375q0 -9.890625 4.6875 -15.906246q4.6875 -6.015625 12.28125 -6.015625q7.546875 0 11.953125 5.171875l0 -22.40625l7.34375 0l0 60.999996l-6.75 0l-0.359375 -4.609375q-4.40625 5.40625 -12.265625 5.40625q-7.46875 0 -12.1875 -6.109375q-4.703125 -6.125 -4.703125 -15.96875l0 -0.5625zm7.359375 0.84375q0 7.296875 3.015625 11.4375q3.015625 4.125 8.328125 4.125q7.0 0 10.21875 -6.28125l0 -19.734375q-3.296875 -6.078121 -10.125 -6.078121q-5.40625 0 -8.421875 4.171871q-3.015625 4.171875 -3.015625 12.359375zm48.288086 21.0l-7.359375 0l0 -42.968746l7.359375 0l0 42.968746zm-7.953125 -54.35937q0 -1.796875 1.09375 -3.015625q1.09375 -1.234375 3.234375 -1.234375q2.15625 0 3.265625 1.234375q1.109375 1.21875 1.109375 3.015625q0 1.78125 -1.109375 2.984375q-1.109375 1.1875 -3.265625 1.1875q-2.140625 0 -3.234375 -1.1875q-1.09375 -1.203125 -1.09375 -2.984375zm17.751953 32.48437q0 -6.3125 2.484375 -11.359375q2.484375 -5.046871 6.90625 -7.781246q4.4375 -2.75 10.109375 -2.75q8.78125 0 14.203125 6.078125q5.421875 6.078121 5.421875 16.171871l0 0.515625q0 6.265625 -2.40625 11.25q-2.40625 4.984375 -6.875 7.765625q-4.46875 2.78125 -10.265625 2.78125q-8.734375 0 -14.15625 -6.078125q-5.421875 -6.078125 -5.421875 -16.078125l0 -0.515625zm7.390625 0.875q0 7.140625 3.3125 11.46875q3.3125 4.328125 8.875 4.328125q5.609375 0 8.890625 -4.390625q3.296875 -4.390625 3.296875 -12.28125q0 -7.078125 -3.359375 -11.453125q-3.34375 -4.390621 -8.90625 -4.390621q-5.4375 0 -8.78125 4.328121q-3.328125 4.328125 -3.328125 12.390625z" fill-rule="nonzero"/><path fill="#98fd98" d="m40.006428 37.305744l73.16536 45.73228l-73.16536 45.732285z" fill-rule="evenodd"/><path fill="#ffff00" d="m55.39895 10.805686l73.16535 45.73228l-73.16535 45.73229z" fill-rule="evenodd"/></g></svg>