<?xml version="1.0" encoding="UTF-8" standalone="no"?>
<svg
   version="1.1"
   viewBox="0.0 0.0 858.0656167979002 177.41994750656167"
   fill="none"
   stroke="none"
   stroke-linecap="square"
   stroke-miterlimit="10"
   id="svg13"
   sodipodi:docname="chipiaudio1.svg"
   inkscape:version="1.3.2 (091e20e, 2023-11-25, custom)"
   xmlns:inkscape="http://www.inkscape.org/namespaces/inkscape"
   xmlns:sodipodi="http://sodipodi.sourceforge.net/DTD/sodipodi-0.dtd"
   xmlns="http://www.w3.org/2000/svg"
   xmlns:svg="http://www.w3.org/2000/svg">
  <defs
     id="defs13" />
  <sodipodi:namedview
     id="namedview13"
     pagecolor="#ffffff"
     bordercolor="#000000"
     borderopacity="0.25"
     inkscape:showpageshadow="2"
     inkscape:pageopacity="0.0"
     inkscape:pagecheckerboard="0"
     inkscape:deskcolor="#d1d1d1"
     inkscape:zoom="1.3017653"
     inkscape:cx="187.43779"
     inkscape:cy="-36.488913"
     inkscape:window-width="1920"
     inkscape:window-height="1129"
     inkscape:window-x="-8"
     inkscape:window-y="-8"
     inkscape:window-maximized="1"
     inkscape:current-layer="g13" />
  <clipPath
     id="p.0">
    <path
       d="m0 0l858.0656 0l0 177.41995l-858.0656 0l0 -177.41995z"
       clip-rule="nonzero"
       id="path1" />
  </clipPath>
  <g
     clip-path="url(#p.0)"
     id="g13">
    <path
       fill="#000000"
       fill-opacity="0.0"
       d="m0 0l858.0656 0l0 177.41995l-858.0656 0z"
       fill-rule="evenodd"
       id="path2" />
    <path
       fill="#f4cccc"
       d="m242.44246 79.371254l0 23.842522l-75.08661 0l0 -23.842522z"
       fill-rule="evenodd"
       id="path3" />
    <path
       fill="#f4cccc"
       d="m149.81775 153.49452l23.938828 -130.20471l27.935196 0l-23.938828 130.20471z"
       fill-rule="evenodd"
       id="path4" />
    <path
       fill="#f4cccc"
       d="m220.82706 153.49452l23.867752 -130.20471l28.006271 0l-23.867767 130.20471z"
       fill-rule="evenodd"
       id="path5" />
    <path
       fill="#ea9999"
       d="m144.10738 152.72183l0 0c-32.012184 4.891083 -65.177925 -4.1374664 -85.72857 -23.337479c-20.550648 -19.20002 -24.976738 -45.29268 -11.440796 -67.4457c13.535946 -22.153019 42.722374 -36.583298 75.44263 -37.30015l1.1295319 21.025898l0 0c-24.252716 1.1199646 -45.963806 11.343136 -56.203827 26.464874c-10.240021 15.121742 -7.2799644 32.588776 7.6627426 45.21717c14.942703 12.628395 39.345016 18.285881 63.170624 14.645607z"
       fill-rule="evenodd"
       id="path6" />
    <path
       fill="#e6b8af"
       d="m 283.01587,151.53281 20.17894,-6.93922 7.85141,-119.260371 -11.33577,0.56903 z"
       fill-rule="evenodd"
       id="path7"
       sodipodi:nodetypes="ccccc"
       style="stroke-width:0.56652" />
    <path
       fill="#e6b8af"
       d="m299.60507 26.01181l0 0c29.907227 -4.8957405 58.58606 -2.1172028 74.23505 7.192234c15.648987 9.309441 15.624176 23.576893 -0.06427002 36.931263c-15.688416 13.35437 -44.3898 23.539352 -74.29343 26.3638l3.1863403 -18.28875l0 0c22.847107 -3.1107635 44.466064 -9.577667 56.240723 -16.823338c11.774658 -7.2456703 11.791016 -14.092323 0.042541504 -17.811245c-11.748444 -3.7189178 -33.35199 -3.705593 -56.200592 0.03466797z"
       fill-rule="evenodd"
       id="path8" />
    <path
       fill="#f9cb9c"
       d="m 396.608,154.34103 8.77954,-92.755901 h 26.33857 l -8.77951,92.755901 z"
       fill-rule="evenodd"
       id="path9" />
    <path
       fill="#f9cb9c"
       d="m 405.94034,34.248416 v 0 c 0,-8.233909 7.14932,-14.908808 15.96851,-14.908808 v 0 c 8.81915,0 15.9685,6.674899 15.9685,14.908808 v 0 c 0,8.233909 -7.14935,14.90881 -15.9685,14.90881 v 0 c -8.81919,0 -15.96851,-6.674901 -15.96851,-14.90881 z"
       fill-rule="evenodd"
       id="path10"
       style="stroke-width:1.11831" />
    <path
       fill="#000000"
       fill-opacity="0.0"
       d="m441.5328 -10.475065l482.64566 0l0 216.53543l-482.64566 0z"
       fill-rule="evenodd"
       id="path11" />
    <path
       fill="#f6b26b"
       d="m453.95468 154.68494l24.875 -131.75l33.18753 0l24.5625 131.75l-26.84378 0l-4.390625 -27.8125l-19.359375 0l-4.546875 27.8125l-27.484375 0zm34.640625 -45.21875l13.984375 0l-6.984375 -51.40625l-7.0 51.40625zm76.45175 46.84375q-5.703125 0 -9.6875 -2.84375q-3.984375 -2.84375 -5.9375 -7.890625q-1.953125 -5.046875 -1.953125 -11.21875l0 -73.6875l26.515625 0l0 70.59375q0 3.421875 1.21875 5.296875q1.21875 1.859375 4.3125 1.859375q1.796875 0 3.75 -0.890625q1.953125 -0.90625 4.0625 -2.03125l0 -74.828125l26.34375 0l0 94.015625l-26.34375 0l0 -8.625q-5.046875 4.71875 -10.65625 7.484375q-5.609375 2.765625 -11.625 2.765625zm85.713135 0q-10.40625 0 -16.109375 -7.3125q-5.6875 -7.328125 -5.6875 -21.640625l0 -38.875q0 -8.78125 2.4375 -15.359375q2.453125 -6.59375 7.328125 -10.328125q4.875 -3.75 12.03125 -3.75q5.203125 0 9.921875 2.03125q4.71875 2.03125 8.625 5.453125l0 -43.59375l26.515625 0l0 131.75l-26.515625 0l0 -7.3125q-4.390625 4.21875 -9.109375 6.578125q-4.71875 2.359375 -9.4375 2.359375zm11.546875 -16.921875q1.3125 0 3.171875 -0.640625q1.875 -0.65625 3.828125 -1.796875l0 -59.359375q-1.625 -0.8125 -3.421875 -1.46875q-1.78125 -0.65625 -3.40625 -0.65625q-3.578125 0 -5.21875 3.015625q-1.625 3.0 -1.625 7.234375l0 43.265625q0 2.9375 0.65625 5.296875q0.65625 2.34375 2.109375 3.734375q1.46875 1.375 3.90625 1.375zm50.097412 15.296875l0 -94.015625l26.515625 0l0 94.015625l-26.515625 0zm-0.15625 -109.953125l0 -18.374998l26.671875 0l0 18.374998l-26.671875 0zm74.01019 111.578125q-10.09375 0 -17.5 -3.40625q-7.390625 -3.421875 -11.375 -10.25q-3.984375 -6.84375 -3.984375 -17.078125l0 -35.796875q0 -10.234375 3.984375 -17.0625q3.984375 -6.84375 11.375 -10.25q7.40625 -3.421875 17.5 -3.421875q10.078125 0 17.484375 3.421875q7.40625 3.40625 11.46875 10.25q4.0625 6.828125 4.0625 17.0625l0 35.796875q0 10.234375 -4.0625 17.078125q-4.0625 6.828125 -11.46875 10.25q-7.40625 3.40625 -17.484375 3.40625zm0.15625 -17.5625q2.609375 0 4.0625 -1.375q1.46875 -1.390625 2.03125 -3.90625q0.578125 -2.53125 0.578125 -6.109375l0 -39.359375q0 -3.578125 -0.578125 -6.09375q-0.5625 -2.53125 -2.03125 -3.90625q-1.453125 -1.390625 -4.0625 -1.390625q-2.59375 0 -4.0625 1.390625q-1.46875 1.375 -2.125 3.90625q-0.640625 2.515625 -0.640625 6.09375l0 39.359375q0 3.578125 0.640625 6.109375q0.65625 2.515625 2.125 3.90625q1.46875 1.375 4.0625 1.375z"
       fill-rule="nonzero"
       id="path12" />
    <path
       fill="#000000"
       fill-opacity="0.0"
       d="m164.86613 336.9029l458.77167 0l0 42.015747l-458.77167 0z"
       fill-rule="evenodd"
       id="path13" />
  </g>
</svg>
